<svg xmlns="http://www.w3.org/2000/svg" width="964" height="112" viewBox="0 0 964 112" fill="none"><path d="M176.368 56.4957V27.2477H163.504L163.312 32.1117C163.227 34.7144 163.056 37.1464 162.8 39.4077C162.587 41.669 162.267 43.7384 161.84 45.6157C161.456 47.493 160.923 49.1144 160.24 50.4797C159.6 51.8024 158.811 52.8264 157.872 53.5517L144.368 51.9517C145.861 51.9944 147.077 51.5037 148.016 50.4797C148.997 49.413 149.765 47.941 150.32 46.0637C150.917 44.1864 151.344 41.9677 151.6 39.4077C151.899 36.8477 152.112 34.053 152.24 31.0237L152.752 17.1997H188.848V56.4957H176.368ZM143.024 71.0237V51.9517H194.928V71.0237H183.344V61.9997H154.672V71.0237H143.024Z" fill="#01AA2C"></path><path d="M227.803 62.8957C224.219 62.8957 220.913 62.3197 217.883 61.1677C214.854 60.0157 212.209 58.3944 209.947 56.3037C207.729 54.1704 206.001 51.6957 204.763 48.8797C203.526 46.0637 202.907 42.9704 202.907 39.5997C202.907 36.229 203.526 33.1357 204.763 30.3197C206.001 27.5037 207.729 25.0504 209.947 22.9597C212.209 20.8264 214.854 19.1837 217.883 18.0317C220.913 16.8797 224.219 16.3037 227.803 16.3037C231.43 16.3037 234.737 16.8797 237.723 18.0317C240.753 19.1837 243.377 20.8264 245.595 22.9597C247.814 25.0504 249.542 27.5037 250.779 30.3197C252.059 33.1357 252.699 36.229 252.699 39.5997C252.699 42.9704 252.059 46.085 250.779 48.9437C249.542 51.7597 247.814 54.213 245.595 56.3037C243.377 58.3944 240.753 60.0157 237.723 61.1677C234.737 62.3197 231.43 62.8957 227.803 62.8957ZM227.803 52.3997C229.51 52.3997 231.089 52.101 232.539 51.5037C234.033 50.9064 235.313 50.053 236.379 48.9437C237.489 47.7917 238.342 46.4264 238.939 44.8477C239.579 43.269 239.899 41.5197 239.899 39.5997C239.899 37.637 239.579 35.8877 238.939 34.3517C238.342 32.773 237.489 31.429 236.379 30.3197C235.313 29.1677 234.033 28.293 232.539 27.6957C231.089 27.0984 229.51 26.7997 227.803 26.7997C226.097 26.7997 224.497 27.0984 223.003 27.6957C221.553 28.293 220.273 29.1677 219.163 30.3197C218.097 31.429 217.243 32.773 216.603 34.3517C216.006 35.8877 215.707 37.637 215.707 39.5997C215.707 41.5197 216.006 43.269 216.603 44.8477C217.243 46.4264 218.097 47.7917 219.163 48.9437C220.273 50.053 221.553 50.9064 223.003 51.5037C224.497 52.101 226.097 52.3997 227.803 52.3997Z" fill="#01AA2C"></path><path d="M294.227 17.1997H306.899V61.9997H294.227V17.1997ZM276.947 61.9997H264.275V17.1997H276.947V61.9997ZM295.123 44.5277H276.051V34.0317H295.123V44.5277Z" fill="#01AA2C"></path><path d="M343.149 62.8957C339.608 62.8957 336.322 62.341 333.293 61.2317C330.306 60.0797 327.704 58.4584 325.485 56.3677C323.309 54.277 321.602 51.8237 320.365 49.0077C319.128 46.149 318.509 43.013 318.509 39.5997C318.509 36.1864 319.128 33.0717 320.365 30.2557C321.602 27.397 323.309 24.9224 325.485 22.8317C327.704 20.741 330.306 19.141 333.293 18.0317C336.322 16.8797 339.608 16.3037 343.149 16.3037C347.288 16.3037 350.978 17.029 354.221 18.4797C357.506 19.9304 360.237 22.021 362.413 24.7517L354.349 32.0477C352.898 30.341 351.298 29.0397 349.549 28.1437C347.842 27.2477 345.922 26.7997 343.789 26.7997C341.954 26.7997 340.269 27.0984 338.733 27.6957C337.197 28.293 335.874 29.1677 334.765 30.3197C333.698 31.429 332.845 32.773 332.205 34.3517C331.608 35.9304 331.309 37.6797 331.309 39.5997C331.309 41.5197 331.608 43.269 332.205 44.8477C332.845 46.4264 333.698 47.7917 334.765 48.9437C335.874 50.053 337.197 50.9064 338.733 51.5037C340.269 52.101 341.954 52.3997 343.789 52.3997C345.922 52.3997 347.842 51.9517 349.549 51.0557C351.298 50.1597 352.898 48.8584 354.349 47.1517L362.413 54.4477C360.237 57.1357 357.506 59.2264 354.221 60.7197C350.978 62.1704 347.288 62.8957 343.149 62.8957Z" fill="#01AA2C"></path><path d="M402.889 17.1997H415.561V61.9997H402.889V17.1997ZM385.609 61.9997H372.937V17.1997H385.609V61.9997ZM403.785 44.5277H384.713V34.0317H403.785V44.5277Z" fill="#01AA2C"></path><path d="M425.507 61.9997L445.283 17.1997H457.763L477.603 61.9997H464.419L448.931 23.4077H453.923L438.435 61.9997H425.507ZM436.323 53.2957L439.587 43.9517H461.475L464.739 53.2957H436.323Z" fill="#01AA2C"></path><path d="M487.537 61.9997V17.1997H524.977V26.9917H500.017V34.2237H511.601C517.063 34.2237 521.223 35.3757 524.081 37.6797C526.983 39.9837 528.433 43.3117 528.433 47.6637C528.433 52.1437 526.812 55.6637 523.569 58.2237C520.327 60.741 515.783 61.9997 509.937 61.9997H487.537ZM500.017 52.9117H509.105C511.196 52.9117 512.796 52.485 513.905 51.6317C515.057 50.7784 515.633 49.5624 515.633 47.9837C515.633 44.8264 513.457 43.2477 509.105 43.2477H500.017V52.9117Z" fill="#01AA2C"></path><path d="M568.063 61.9997L555.455 40.6877L565.631 34.6717L582.335 61.9997H568.063ZM539.519 61.9997V17.1997H552.127V61.9997H539.519ZM548.479 44.8477V34.6077H564.735V44.8477H548.479ZM566.847 40.9437L555.135 39.6637L568.895 17.1997H582.207L566.847 40.9437Z" fill="#01AA2C"></path><path d="M612.966 62.8957C609.382 62.8957 606.075 62.3197 603.046 61.1677C600.017 60.0157 597.371 58.3944 595.11 56.3037C592.891 54.1704 591.163 51.6957 589.926 48.8797C588.689 46.0637 588.07 42.9704 588.07 39.5997C588.07 36.229 588.689 33.1357 589.926 30.3197C591.163 27.5037 592.891 25.0504 595.11 22.9597C597.371 20.8264 600.017 19.1837 603.046 18.0317C606.075 16.8797 609.382 16.3037 612.966 16.3037C616.593 16.3037 619.899 16.8797 622.886 18.0317C625.915 19.1837 628.539 20.8264 630.758 22.9597C632.977 25.0504 634.705 27.5037 635.942 30.3197C637.222 33.1357 637.862 36.229 637.862 39.5997C637.862 42.9704 637.222 46.085 635.942 48.9437C634.705 51.7597 632.977 54.213 630.758 56.3037C628.539 58.3944 625.915 60.0157 622.886 61.1677C619.899 62.3197 616.593 62.8957 612.966 62.8957ZM612.966 52.3997C614.673 52.3997 616.251 52.101 617.702 51.5037C619.195 50.9064 620.475 50.053 621.542 48.9437C622.651 47.7917 623.505 46.4264 624.102 44.8477C624.742 43.269 625.062 41.5197 625.062 39.5997C625.062 37.637 624.742 35.8877 624.102 34.3517C623.505 32.773 622.651 31.429 621.542 30.3197C620.475 29.1677 619.195 28.293 617.702 27.6957C616.251 27.0984 614.673 26.7997 612.966 26.7997C611.259 26.7997 609.659 27.0984 608.166 27.6957C606.715 28.293 605.435 29.1677 604.326 30.3197C603.259 31.429 602.406 32.773 601.766 34.3517C601.169 35.8877 600.87 37.637 600.87 39.5997C600.87 41.5197 601.169 43.269 601.766 44.8477C602.406 46.4264 603.259 47.7917 604.326 48.9437C605.435 50.053 606.715 50.9064 608.166 51.5037C609.659 52.101 611.259 52.3997 612.966 52.3997Z" fill="#01AA2C"></path><path d="M649.437 61.9997V17.1997H659.869L678.365 47.6637H672.861L690.973 17.1997H701.405L701.533 61.9997H689.821L689.757 34.9277H691.741L678.237 57.5837H672.605L658.717 34.9277H661.085V61.9997H649.437Z" fill="#01AA2C"></path><path d="M715.862 61.9997V17.1997H757.91V61.9997H745.366V24.4317L748.182 27.2477H725.59L728.342 24.4317V61.9997H715.862Z" fill="#01AA2C"></path><path d="M774.018 62.7677C773.165 62.7677 772.248 62.7037 771.266 62.5757C770.328 62.4477 769.325 62.2557 768.258 61.9997L768.962 51.6317C769.56 51.7597 770.136 51.8237 770.69 51.8237C772.44 51.8237 773.762 51.141 774.658 49.7757C775.554 48.3677 776.173 46.405 776.514 43.8877C776.898 41.3704 777.133 38.4264 777.218 35.0557L777.858 17.1997H813.954V61.9997H801.474V24.4317L804.226 27.2477H786.114L788.674 24.3037L788.354 34.5437C788.226 38.8957 787.928 42.821 787.458 46.3197C786.989 49.7757 786.242 52.741 785.218 55.2157C784.194 57.6477 782.765 59.525 780.93 60.8477C779.138 62.1277 776.834 62.7677 774.018 62.7677Z" fill="#01AA2C"></path><path d="M839.985 34.5437H860.785V44.0157H839.985V34.5437ZM840.881 52.2077H864.305V61.9997H828.337V17.1997H863.473V26.9917H840.881V52.2077Z" fill="#01AA2C"></path><path d="M904.613 61.9997L892.005 40.6877L902.181 34.6717L918.885 61.9997H904.613ZM876.069 61.9997V17.1997H888.677V61.9997H876.069ZM885.029 44.8477V34.6077H901.285V44.8477H885.029ZM903.397 40.9437L891.685 39.6637L905.445 17.1997H918.757L903.397 40.9437Z" fill="#01AA2C"></path><path d="M937.107 61.9997V24.4317L939.923 27.2477H923.347V17.1997H963.283V27.2477H946.771L949.587 24.4317V61.9997H937.107Z" fill="#01AA2C"></path><path d="M150.186 101.346V82.4464H157.26C158.862 82.4464 160.239 82.7074 161.391 83.2294C162.543 83.7334 163.425 84.4714 164.037 85.4434C164.667 86.3974 164.982 87.5584 164.982 88.9264C164.982 90.2584 164.667 91.4104 164.037 92.3824C163.425 93.3364 162.543 94.0744 161.391 94.5964C160.239 95.1184 158.862 95.3794 157.26 95.3794H151.293L152.184 94.4344V101.346H150.186ZM152.184 94.5964L151.293 93.6244H157.206C159.096 93.6244 160.527 93.2194 161.499 92.4094C162.489 91.5814 162.984 90.4204 162.984 88.9264C162.984 87.4144 162.489 86.2444 161.499 85.4164C160.527 84.5884 159.096 84.1744 157.206 84.1744H151.293L152.184 83.2294V94.5964Z" fill="#01AA2C"></path><path d="M171.927 90.8974H181.917V92.5984H171.927V90.8974ZM172.143 99.6184H183.51V101.346H170.145V82.4464H183.105V84.1744H172.143V99.6184Z" fill="#01AA2C"></path><path d="M189.023 101.346V82.4464H201.038V84.1744H190.454L190.967 83.6614L190.994 101.346H189.023Z" fill="#01AA2C"></path><path d="M205.554 101.346V82.4464H207.525V98.1064L219.621 82.4464H221.43V101.346H219.459V85.7134L207.363 101.346H205.554Z" fill="#01AA2C"></path><path d="M237.177 101.508C235.755 101.508 234.432 101.274 233.208 100.806C232.002 100.32 230.949 99.6454 230.049 98.7814C229.167 97.8994 228.474 96.8824 227.97 95.7304C227.484 94.5604 227.241 93.2824 227.241 91.8964C227.241 90.5104 227.484 89.2414 227.97 88.0894C228.474 86.9194 229.167 85.9024 230.049 85.0384C230.949 84.1564 232.002 83.4814 233.208 83.0134C234.414 82.5274 235.737 82.2844 237.177 82.2844C238.599 82.2844 239.913 82.5274 241.119 83.0134C242.325 83.4814 243.369 84.1474 244.251 85.0114C245.151 85.8754 245.844 86.8924 246.33 88.0624C246.834 89.2324 247.086 90.5104 247.086 91.8964C247.086 93.2824 246.834 94.5604 246.33 95.7304C245.844 96.9004 245.151 97.9174 244.251 98.7814C243.369 99.6454 242.325 100.32 241.119 100.806C239.913 101.274 238.599 101.508 237.177 101.508ZM237.177 99.7264C238.311 99.7264 239.355 99.5374 240.309 99.1594C241.281 98.7634 242.118 98.2144 242.82 97.5124C243.54 96.7924 244.098 95.9644 244.494 95.0284C244.89 94.0744 245.088 93.0304 245.088 91.8964C245.088 90.7624 244.89 89.7274 244.494 88.7914C244.098 87.8374 243.54 87.0094 242.82 86.3074C242.118 85.5874 241.281 85.0384 240.309 84.6604C239.355 84.2644 238.311 84.0664 237.177 84.0664C236.043 84.0664 234.99 84.2644 234.018 84.6604C233.046 85.0384 232.2 85.5874 231.48 86.3074C230.778 87.0094 230.22 87.8374 229.806 88.7914C229.41 89.7274 229.212 90.7624 229.212 91.8964C229.212 93.0124 229.41 94.0474 229.806 95.0014C230.22 95.9554 230.778 96.7924 231.48 97.5124C232.2 98.2144 233.046 98.7634 234.018 99.1594C234.99 99.5374 236.043 99.7264 237.177 99.7264Z" fill="#01AA2C"></path><path d="M266.758 82.4464H268.729V101.346H266.758V82.4464ZM254.932 101.346H252.934V82.4464H254.932V101.346ZM266.947 92.6254H254.716V90.8704H266.947V92.6254Z" fill="#01AA2C"></path><path d="M273.408 101.346L282.048 82.4464H284.018L292.658 101.346H290.553L282.615 83.6074H283.424L275.486 101.346H273.408ZM276.81 96.2974L277.403 94.6774H288.393L288.986 96.2974H276.81Z" fill="#01AA2C"></path><path d="M295.983 101.508C295.731 101.508 295.488 101.49 295.254 101.454C295.02 101.436 294.759 101.391 294.471 101.319L294.633 99.5374C294.939 99.6094 295.236 99.6454 295.524 99.6454C296.334 99.6454 296.982 99.3304 297.468 98.7004C297.972 98.0524 298.35 97.0624 298.602 95.7304C298.854 94.3804 299.016 92.6524 299.088 90.5464L299.358 82.4464H312.183V101.346H310.212V83.6344L310.725 84.1744H300.627L301.113 83.6074L300.87 90.4924C300.798 92.3824 300.663 94.0204 300.465 95.4064C300.267 96.7744 299.979 97.9174 299.601 98.8354C299.223 99.7354 298.737 100.41 298.143 100.86C297.549 101.292 296.829 101.508 295.983 101.508Z" fill="#01AA2C"></path><path d="M327.551 89.1964C329.783 89.1964 331.484 89.7004 332.654 90.7084C333.842 91.6984 334.436 93.1744 334.436 95.1364C334.436 97.1704 333.806 98.7184 332.546 99.7804C331.286 100.824 329.486 101.346 327.146 101.346H319.64V82.4464H321.611V89.1964H327.551ZM327.092 99.7534C328.838 99.7534 330.161 99.3664 331.061 98.5924C331.979 97.8184 332.438 96.6844 332.438 95.1904C332.438 93.6964 331.988 92.5984 331.088 91.8964C330.188 91.1764 328.856 90.8164 327.092 90.8164H321.611V99.7534H327.092Z" fill="#01AA2C"></path><path d="M353.712 82.4464H355.683V101.346H353.712V82.4464ZM341.886 101.346H339.888V82.4464H341.886V101.346ZM353.901 92.6254H341.67V90.8704H353.901V92.6254Z" fill="#01AA2C"></path><path d="M371.054 89.1964C373.286 89.1964 374.987 89.7004 376.157 90.7084C377.345 91.6984 377.939 93.1744 377.939 95.1364C377.939 97.1704 377.309 98.7184 376.049 99.7804C374.789 100.824 372.989 101.346 370.649 101.346H363.143V82.4464H365.114V89.1964H371.054ZM370.595 99.7534C372.341 99.7534 373.664 99.3664 374.564 98.5924C375.482 97.8184 375.941 96.6844 375.941 95.1904C375.941 93.6964 375.491 92.5984 374.591 91.8964C373.691 91.1764 372.359 90.8164 370.595 90.8164H365.114V99.7534H370.595ZM381.206 101.346V82.4464H383.177V101.346H381.206Z" fill="#01AA2C"></path><path d="M390.617 101.346V82.4464H392.588V98.1064L404.684 82.4464H406.493V101.346H404.522V85.7134L392.426 101.346H390.617ZM398.501 81.0694C397.151 81.0694 396.08 80.7634 395.288 80.1514C394.514 79.5394 394.118 78.6844 394.1 77.5864H395.585C395.603 78.3064 395.873 78.8734 396.395 79.2874C396.935 79.7014 397.637 79.9084 398.501 79.9084C399.365 79.9084 400.058 79.7014 400.58 79.2874C401.12 78.8734 401.399 78.3064 401.417 77.5864H402.902C402.884 78.6844 402.479 79.5394 401.687 80.1514C400.895 80.7634 399.833 81.0694 398.501 81.0694Z" fill="#01AA2C"></path><path d="M430.386 101.508C428.964 101.508 427.641 101.274 426.417 100.806C425.211 100.32 424.158 99.6454 423.258 98.7814C422.376 97.8994 421.683 96.8824 421.179 95.7304C420.693 94.5604 420.45 93.2824 420.45 91.8964C420.45 90.5104 420.693 89.2414 421.179 88.0894C421.683 86.9194 422.376 85.9024 423.258 85.0384C424.158 84.1564 425.211 83.4814 426.417 83.0134C427.623 82.5274 428.946 82.2844 430.386 82.2844C431.808 82.2844 433.122 82.5274 434.328 83.0134C435.534 83.4814 436.578 84.1474 437.46 85.0114C438.36 85.8754 439.053 86.8924 439.539 88.0624C440.043 89.2324 440.295 90.5104 440.295 91.8964C440.295 93.2824 440.043 94.5604 439.539 95.7304C439.053 96.9004 438.36 97.9174 437.46 98.7814C436.578 99.6454 435.534 100.32 434.328 100.806C433.122 101.274 431.808 101.508 430.386 101.508ZM430.386 99.7264C431.52 99.7264 432.564 99.5374 433.518 99.1594C434.49 98.7634 435.327 98.2144 436.029 97.5124C436.749 96.7924 437.307 95.9644 437.703 95.0284C438.099 94.0744 438.297 93.0304 438.297 91.8964C438.297 90.7624 438.099 89.7274 437.703 88.7914C437.307 87.8374 436.749 87.0094 436.029 86.3074C435.327 85.5874 434.49 85.0384 433.518 84.6604C432.564 84.2644 431.52 84.0664 430.386 84.0664C429.252 84.0664 428.199 84.2644 427.227 84.6604C426.255 85.0384 425.409 85.5874 424.689 86.3074C423.987 87.0094 423.429 87.8374 423.015 88.7914C422.619 89.7274 422.421 90.7624 422.421 91.8964C422.421 93.0124 422.619 94.0474 423.015 95.0014C423.429 95.9554 423.987 96.7924 424.689 97.5124C425.409 98.2144 426.255 98.7634 427.227 99.1594C428.199 99.5374 429.252 99.7264 430.386 99.7264Z" fill="#01AA2C"></path><path d="M446.143 101.346V82.4464H462.046V101.346H460.075V83.6344L460.588 84.1744H447.601L448.114 83.6344V101.346H446.143Z" fill="#01AA2C"></path><path d="M471.285 90.8974H481.275V92.5984H471.285V90.8974ZM471.501 99.6184H482.868V101.346H469.503V82.4464H482.463V84.1744H471.501V99.6184Z" fill="#01AA2C"></path><path d="M488.381 101.346V82.4464H495.455C497.057 82.4464 498.434 82.7074 499.586 83.2294C500.738 83.7334 501.62 84.4714 502.232 85.4434C502.862 86.3974 503.177 87.5584 503.177 88.9264C503.177 90.2584 502.862 91.4104 502.232 92.3824C501.62 93.3364 500.738 94.0744 499.586 94.5964C498.434 95.1184 497.057 95.3794 495.455 95.3794H489.488L490.379 94.4344V101.346H488.381ZM490.379 94.5964L489.488 93.6244H495.401C497.291 93.6244 498.722 93.2194 499.694 92.4094C500.684 91.5814 501.179 90.4204 501.179 88.9264C501.179 87.4144 500.684 86.2444 499.694 85.4164C498.722 84.5884 497.291 84.1744 495.401 84.1744H489.488L490.379 83.2294V94.5964Z" fill="#01AA2C"></path><path d="M504.61 101.346L513.25 82.4464H515.221L523.861 101.346H521.755L513.817 83.6074H514.627L506.689 101.346H504.61ZM508.012 96.2974L508.606 94.6774H519.595L520.189 96.2974H508.012Z" fill="#01AA2C"></path><path d="M531.366 101.346V83.6344L531.906 84.1744H524.724V82.4464H539.979V84.1744H532.824L533.337 83.6344V101.346H531.366Z" fill="#01AA2C"></path><path d="M552.592 101.508C551.17 101.508 549.847 101.274 548.623 100.806C547.417 100.32 546.364 99.6454 545.464 98.7814C544.582 97.8994 543.889 96.8824 543.385 95.7304C542.899 94.5604 542.656 93.2824 542.656 91.8964C542.656 90.5104 542.899 89.2414 543.385 88.0894C543.889 86.9194 544.582 85.9024 545.464 85.0384C546.364 84.1564 547.417 83.4814 548.623 83.0134C549.829 82.5274 551.152 82.2844 552.592 82.2844C554.014 82.2844 555.328 82.5274 556.534 83.0134C557.74 83.4814 558.784 84.1474 559.666 85.0114C560.566 85.8754 561.259 86.8924 561.745 88.0624C562.249 89.2324 562.501 90.5104 562.501 91.8964C562.501 93.2824 562.249 94.5604 561.745 95.7304C561.259 96.9004 560.566 97.9174 559.666 98.7814C558.784 99.6454 557.74 100.32 556.534 100.806C555.328 101.274 554.014 101.508 552.592 101.508ZM552.592 99.7264C553.726 99.7264 554.77 99.5374 555.724 99.1594C556.696 98.7634 557.533 98.2144 558.235 97.5124C558.955 96.7924 559.513 95.9644 559.909 95.0284C560.305 94.0744 560.503 93.0304 560.503 91.8964C560.503 90.7624 560.305 89.7274 559.909 88.7914C559.513 87.8374 558.955 87.0094 558.235 86.3074C557.533 85.5874 556.696 85.0384 555.724 84.6604C554.77 84.2644 553.726 84.0664 552.592 84.0664C551.458 84.0664 550.405 84.2644 549.433 84.6604C548.461 85.0384 547.615 85.5874 546.895 86.3074C546.193 87.0094 545.635 87.8374 545.221 88.7914C544.825 89.7274 544.627 90.7624 544.627 91.8964C544.627 93.0124 544.825 94.0474 545.221 95.0014C545.635 95.9554 546.193 96.7924 546.895 97.5124C547.615 98.2144 548.461 98.7634 549.433 99.1594C550.405 99.5374 551.458 99.7264 552.592 99.7264Z" fill="#01AA2C"></path><path d="M568.349 101.346V82.4464H575.423C577.025 82.4464 578.402 82.7074 579.554 83.2294C580.706 83.7334 581.588 84.4714 582.2 85.4434C582.83 86.3974 583.145 87.5584 583.145 88.9264C583.145 90.2584 582.83 91.4104 582.2 92.3824C581.588 93.3364 580.706 94.0744 579.554 94.5964C578.402 95.1184 577.025 95.3794 575.423 95.3794H569.456L570.347 94.4344V101.346H568.349ZM570.347 94.5964L569.456 93.6244H575.369C577.259 93.6244 578.69 93.2194 579.662 92.4094C580.652 91.5814 581.147 90.4204 581.147 88.9264C581.147 87.4144 580.652 86.2444 579.662 85.4164C578.69 84.5884 577.259 84.1744 575.369 84.1744H569.456L570.347 83.2294V94.5964Z" fill="#01AA2C"></path><path d="M596.718 101.346V82.4464H612.621V101.346H610.65V83.6344L611.163 84.1744H598.176L598.689 83.6344V101.346H596.718Z" fill="#01AA2C"></path><path d="M628.367 101.508C626.945 101.508 625.622 101.274 624.398 100.806C623.192 100.32 622.139 99.6454 621.239 98.7814C620.357 97.8994 619.664 96.8824 619.16 95.7304C618.674 94.5604 618.431 93.2824 618.431 91.8964C618.431 90.5104 618.674 89.2414 619.16 88.0894C619.664 86.9194 620.357 85.9024 621.239 85.0384C622.139 84.1564 623.192 83.4814 624.398 83.0134C625.604 82.5274 626.927 82.2844 628.367 82.2844C629.789 82.2844 631.103 82.5274 632.309 83.0134C633.515 83.4814 634.559 84.1474 635.441 85.0114C636.341 85.8754 637.034 86.8924 637.52 88.0624C638.024 89.2324 638.276 90.5104 638.276 91.8964C638.276 93.2824 638.024 94.5604 637.52 95.7304C637.034 96.9004 636.341 97.9174 635.441 98.7814C634.559 99.6454 633.515 100.32 632.309 100.806C631.103 101.274 629.789 101.508 628.367 101.508ZM628.367 99.7264C629.501 99.7264 630.545 99.5374 631.499 99.1594C632.471 98.7634 633.308 98.2144 634.01 97.5124C634.73 96.7924 635.288 95.9644 635.684 95.0284C636.08 94.0744 636.278 93.0304 636.278 91.8964C636.278 90.7624 636.08 89.7274 635.684 88.7914C635.288 87.8374 634.73 87.0094 634.01 86.3074C633.308 85.5874 632.471 85.0384 631.499 84.6604C630.545 84.2644 629.501 84.0664 628.367 84.0664C627.233 84.0664 626.18 84.2644 625.208 84.6604C624.236 85.0384 623.39 85.5874 622.67 86.3074C621.968 87.0094 621.41 87.8374 620.996 88.7914C620.6 89.7274 620.402 90.7624 620.402 91.8964C620.402 93.0124 620.6 94.0474 620.996 95.0014C621.41 95.9554 621.968 96.7924 622.67 97.5124C623.39 98.2144 624.236 98.7634 625.208 99.1594C626.18 99.5374 627.233 99.7264 628.367 99.7264Z" fill="#01AA2C"></path><path d="M660.559 101.508C659.137 101.508 657.814 101.274 656.59 100.806C655.384 100.32 654.331 99.6454 653.431 98.7814C652.549 97.8994 651.856 96.8824 651.352 95.7304C650.866 94.5604 650.623 93.2824 650.623 91.8964C650.623 90.5104 650.866 89.2414 651.352 88.0894C651.856 86.9194 652.549 85.9024 653.431 85.0384C654.331 84.1564 655.384 83.4814 656.59 83.0134C657.796 82.5274 659.119 82.2844 660.559 82.2844C661.981 82.2844 663.295 82.5274 664.501 83.0134C665.707 83.4814 666.751 84.1474 667.633 85.0114C668.533 85.8754 669.226 86.8924 669.712 88.0624C670.216 89.2324 670.468 90.5104 670.468 91.8964C670.468 93.2824 670.216 94.5604 669.712 95.7304C669.226 96.9004 668.533 97.9174 667.633 98.7814C666.751 99.6454 665.707 100.32 664.501 100.806C663.295 101.274 661.981 101.508 660.559 101.508ZM660.559 99.7264C661.693 99.7264 662.737 99.5374 663.691 99.1594C664.663 98.7634 665.5 98.2144 666.202 97.5124C666.922 96.7924 667.48 95.9644 667.876 95.0284C668.272 94.0744 668.47 93.0304 668.47 91.8964C668.47 90.7624 668.272 89.7274 667.876 88.7914C667.48 87.8374 666.922 87.0094 666.202 86.3074C665.5 85.5874 664.663 85.0384 663.691 84.6604C662.737 84.2644 661.693 84.0664 660.559 84.0664C659.425 84.0664 658.372 84.2644 657.4 84.6604C656.428 85.0384 655.582 85.5874 654.862 86.3074C654.16 87.0094 653.602 87.8374 653.188 88.7914C652.792 89.7274 652.594 90.7624 652.594 91.8964C652.594 93.0124 652.792 94.0474 653.188 95.0014C653.602 95.9554 654.16 96.7924 654.862 97.5124C655.582 98.2144 656.428 98.7634 657.4 99.1594C658.372 99.5374 659.425 99.7264 660.559 99.7264Z" fill="#01AA2C"></path><path d="M676.316 101.346V82.4464H690.14V84.1474H678.287V90.3304H684.47C686.702 90.3304 688.394 90.7894 689.546 91.7074C690.716 92.6074 691.301 93.9394 691.301 95.7034C691.301 97.5214 690.671 98.9164 689.411 99.8884C688.169 100.86 686.378 101.346 684.038 101.346H676.316ZM678.287 99.7534H684.011C685.757 99.7534 687.071 99.4204 687.953 98.7544C688.853 98.0704 689.303 97.0804 689.303 95.7844C689.303 93.2104 687.539 91.9234 684.011 91.9234H678.287V99.7534Z" fill="#01AA2C"></path><path d="M696.987 101.346V82.4464H704.061C705.663 82.4464 707.04 82.7074 708.192 83.2294C709.344 83.7334 710.226 84.4714 710.838 85.4434C711.468 86.3974 711.783 87.5584 711.783 88.9264C711.783 90.2584 711.468 91.4104 710.838 92.3824C710.226 93.3364 709.344 94.0744 708.192 94.5964C707.04 95.1184 705.663 95.3794 704.061 95.3794H698.094L698.985 94.4344V101.346H696.987ZM698.985 94.5964L698.094 93.6244H704.007C705.897 93.6244 707.328 93.2194 708.3 92.4094C709.29 91.5814 709.785 90.4204 709.785 88.9264C709.785 87.4144 709.29 86.2444 708.3 85.4164C707.328 84.5884 705.897 84.1744 704.007 84.1744H698.094L698.985 83.2294V94.5964Z" fill="#01AA2C"></path><path d="M713.215 101.346L721.855 82.4464H723.826L732.466 101.346H730.36L722.422 83.6074H723.232L715.294 101.346H713.215ZM716.617 96.2974L717.211 94.6774H728.2L728.794 96.2974H716.617Z" fill="#01AA2C"></path><path d="M748.265 99.6184L747.779 100.158V82.4464H749.75V100.158L749.21 99.6184H758.903L758.363 100.158V82.4464H760.334V101.346H737.168V82.4464H739.139V100.158L738.626 99.6184H748.265ZM761.414 105.585V100.806L761.954 101.346H758.336V99.6184H763.277V105.585H761.414Z" fill="#01AA2C"></path><path d="M770.194 90.8974H780.184V92.5984H770.194V90.8974ZM770.41 99.6184H781.777V101.346H768.412V82.4464H781.372V84.1744H770.41V99.6184Z" fill="#01AA2C"></path><path d="M801.114 82.4464H803.085V101.346H801.114V82.4464ZM789.288 101.346H787.29V82.4464H789.288V101.346ZM801.303 92.6254H789.072V90.8704H801.303V92.6254Z" fill="#01AA2C"></path><path d="M810.545 101.346V82.4464H812.516V98.1064L824.612 82.4464H826.421V101.346H824.45V85.7134L812.354 101.346H810.545Z" fill="#01AA2C"></path><path d="M833.879 101.346V82.4464H835.85V90.8434H840.737V92.6524H835.85V101.346H833.879ZM849.134 101.508C847.784 101.508 846.533 101.274 845.381 100.806C844.247 100.32 843.248 99.6454 842.384 98.7814C841.538 97.9174 840.881 96.9004 840.413 95.7304C839.945 94.5604 839.711 93.2824 839.711 91.8964C839.711 90.5104 839.945 89.2324 840.413 88.0624C840.881 86.8924 841.538 85.8754 842.384 85.0114C843.248 84.1474 844.247 83.4814 845.381 83.0134C846.533 82.5274 847.784 82.2844 849.134 82.2844C850.484 82.2844 851.735 82.5274 852.887 83.0134C854.039 83.4814 855.038 84.1474 855.884 85.0114C856.73 85.8754 857.387 86.8924 857.855 88.0624C858.341 89.2324 858.584 90.5104 858.584 91.8964C858.584 93.2824 858.341 94.5604 857.855 95.7304C857.387 96.9004 856.73 97.9174 855.884 98.7814C855.038 99.6454 854.039 100.32 852.887 100.806C851.735 101.274 850.484 101.508 849.134 101.508ZM849.134 99.7264C850.196 99.7264 851.177 99.5374 852.077 99.1594C852.995 98.7634 853.787 98.2144 854.453 97.5124C855.119 96.8104 855.641 95.9914 856.019 95.0554C856.397 94.1014 856.586 93.0484 856.586 91.8964C856.586 90.7444 856.397 89.7004 856.019 88.7644C855.641 87.8104 855.119 86.9824 854.453 86.2804C853.787 85.5784 852.995 85.0384 852.077 84.6604C851.177 84.2644 850.196 84.0664 849.134 84.0664C848.09 84.0664 847.109 84.2644 846.191 84.6604C845.291 85.0384 844.508 85.5784 843.842 86.2804C843.176 86.9824 842.654 87.8104 842.276 88.7644C841.898 89.7004 841.709 90.7444 841.709 91.8964C841.709 93.0484 841.898 94.1014 842.276 95.0554C842.654 95.9914 843.176 96.8104 843.842 97.5124C844.508 98.2144 845.291 98.7634 846.191 99.1594C847.109 99.5374 848.09 99.7264 849.134 99.7264Z" fill="#01AA2C"></path><path d="M880.846 101.508C879.424 101.508 878.11 101.274 876.904 100.806C875.698 100.32 874.654 99.6454 873.772 98.7814C872.89 97.9174 872.197 96.9004 871.693 95.7304C871.207 94.5604 870.964 93.2824 870.964 91.8964C870.964 90.5104 871.207 89.2324 871.693 88.0624C872.197 86.8924 872.89 85.8754 873.772 85.0114C874.672 84.1474 875.725 83.4814 876.931 83.0134C878.137 82.5274 879.451 82.2844 880.873 82.2844C882.241 82.2844 883.528 82.5184 884.734 82.9864C885.94 83.4364 886.957 84.1204 887.785 85.0384L886.516 86.3074C885.742 85.5154 884.887 84.9484 883.951 84.6064C883.015 84.2464 882.007 84.0664 880.927 84.0664C879.793 84.0664 878.74 84.2644 877.768 84.6604C876.796 85.0384 875.95 85.5874 875.23 86.3074C874.51 87.0094 873.943 87.8374 873.529 88.7914C873.133 89.7274 872.935 90.7624 872.935 91.8964C872.935 93.0304 873.133 94.0744 873.529 95.0284C873.943 95.9644 874.51 96.7924 875.23 97.5124C875.95 98.2144 876.796 98.7634 877.768 99.1594C878.74 99.5374 879.793 99.7264 880.927 99.7264C882.007 99.7264 883.015 99.5464 883.951 99.1864C884.887 98.8264 885.742 98.2504 886.516 97.4584L887.785 98.7274C886.957 99.6454 885.94 100.338 884.734 100.806C883.528 101.274 882.232 101.508 880.846 101.508Z" fill="#01AA2C"></path><path d="M904.89 101.346V83.6344L905.43 84.1744H898.248V82.4464H913.503V84.1744H906.348L906.861 83.6344V101.346H904.89Z" fill="#01AA2C"></path><path d="M931.023 101.346L923.76 91.9234L925.38 90.9514L933.318 101.346H931.023ZM918.09 101.346V82.4464H920.034V101.346H918.09ZM919.44 92.6794V90.9244H925.353V92.6794H919.44ZM925.542 92.1124L923.706 91.7884L930.753 82.4464H932.913L925.542 92.1124Z" fill="#01AA2C"></path><path d="M945.732 101.508C944.31 101.508 942.987 101.274 941.763 100.806C940.557 100.32 939.504 99.6454 938.604 98.7814C937.722 97.8994 937.029 96.8824 936.525 95.7304C936.039 94.5604 935.796 93.2824 935.796 91.8964C935.796 90.5104 936.039 89.2414 936.525 88.0894C937.029 86.9194 937.722 85.9024 938.604 85.0384C939.504 84.1564 940.557 83.4814 941.763 83.0134C942.969 82.5274 944.292 82.2844 945.732 82.2844C947.154 82.2844 948.468 82.5274 949.674 83.0134C950.88 83.4814 951.924 84.1474 952.806 85.0114C953.706 85.8754 954.399 86.8924 954.885 88.0624C955.389 89.2324 955.641 90.5104 955.641 91.8964C955.641 93.2824 955.389 94.5604 954.885 95.7304C954.399 96.9004 953.706 97.9174 952.806 98.7814C951.924 99.6454 950.88 100.32 949.674 100.806C948.468 101.274 947.154 101.508 945.732 101.508ZM945.732 99.7264C946.866 99.7264 947.91 99.5374 948.864 99.1594C949.836 98.7634 950.673 98.2144 951.375 97.5124C952.095 96.7924 952.653 95.9644 953.049 95.0284C953.445 94.0744 953.643 93.0304 953.643 91.8964C953.643 90.7624 953.445 89.7274 953.049 88.7914C952.653 87.8374 952.095 87.0094 951.375 86.3074C950.673 85.5874 949.836 85.0384 948.864 84.6604C947.91 84.2644 946.866 84.0664 945.732 84.0664C944.598 84.0664 943.545 84.2644 942.573 84.6604C941.601 85.0384 940.755 85.5874 940.035 86.3074C939.333 87.0094 938.775 87.8374 938.361 88.7914C937.965 89.7274 937.767 90.7624 937.767 91.8964C937.767 93.0124 937.965 94.0474 938.361 95.0014C938.775 95.9554 939.333 96.7924 940.035 97.5124C940.755 98.2144 941.601 98.7634 942.573 99.1594C943.545 99.5374 944.598 99.7264 945.732 99.7264Z" fill="#01AA2C"></path><path d="M54.2324 0.907715C57.6065 1.03058 71.463 9.23823 75.6206 11.3563C68.6418 14.6148 61.8498 18.2903 55.0178 21.7998C52.004 21.6059 37.8959 13.1162 34.2168 11.1158C41.0717 8.11688 47.5358 4.21292 54.2324 0.907715Z" fill="#016345"></path><path d="M83.9589 16.1069C89.4527 17.6972 99.1899 23.7937 104.76 26.7372L73.2267 43.137L59.0957 50.5313C59.8258 44.3241 59.2387 37.7448 59.5627 31.4666C59.7419 31.1949 59.9287 30.9302 60.1136 30.662C64.1511 24.8078 77.0469 19.6423 83.9589 16.1069Z" fill="#016345"></path><path d="M25.3051 16.0498C28.4886 16.9029 43.7652 25.3407 46.5026 27.5817C52.7894 32.7333 49.9872 43.1802 50.317 50.244C46.2338 48.5066 42.3489 46.347 38.443 44.3015C27.3372 38.5425 16.092 31.5583 4.52051 26.7026C11.5923 23.548 18.4396 19.5817 25.3051 16.0498Z" fill="#016345"></path><path d="M0.481689 64.8101C8.48241 68.6465 43.9581 86.3683 48.4492 90.8156C52.0787 94.4098 50.3498 107.08 50.222 112C43.9791 109.602 6.12208 89.549 2.54939 86.197C-1.38359 82.5059 0.379132 69.7592 0.481689 64.8101Z" fill="#01AA2C"></path><path d="M108.335 34.3042L108.85 34.6988C109.595 37.7011 109.538 49.9581 108.61 52.758C108.088 54.331 107.228 55.3087 105.869 56.3557C100.169 60.7442 92.5478 63.9957 86.0665 67.3822C77.2063 72.0095 68.4242 76.8635 59.36 81.1482C58.6432 77.6405 58.7938 65.8092 59.8651 62.2998C60.4179 60.4863 61.8876 59.2732 63.4489 58.1277C68.7501 54.241 75.2467 51.3511 81.1579 48.2847C90.1821 43.5686 99.2413 38.9084 108.335 34.3042Z" fill="#01AA2C"></path><path d="M108.284 65.0566L108.829 65.1708C109.658 67.9604 109.481 79.9145 108.757 82.9099C108.339 84.6404 107.409 86.1217 105.958 87.3088C101.866 90.659 96.1067 93.0401 91.3278 95.513C80.9578 100.879 70.2561 105.989 60.193 111.805L59.4915 111.253C58.6832 107.484 58.6642 96.9597 59.7946 93.388C60.3264 91.7094 61.3882 90.5552 62.835 89.4494C68.1821 85.3586 75.2257 82.377 81.2723 79.2085C90.2755 74.4929 99.1891 69.6303 108.284 65.0566Z" fill="#01AA2C"></path><path d="M0.456138 34.0366C7.24563 36.705 44.0321 55.5914 48.1648 59.6286C52.1184 63.4928 50.3932 75.9539 50.2693 81.0329C45.2521 79.6502 5.506 58.2875 2.05168 54.9061C-0.91883 51.999 0.365782 38.1967 0.456138 34.0366Z" fill="#01AA2C"></path></svg>